<svg id="Layer_1" height="512" viewBox="0 0 512 512" width="512" xmlns="http://www.w3.org/2000/svg" data-name="Layer 1"><path d="m342.242 137.757-112-112a6 6 0 0 0 -4.242-1.757h-140a34.038 34.038 0 0 0 -34 34v336a34.038 34.038 0 0 0 34 34h185.669a97.99 97.99 0 1 0 72.331-134.335v-151.665a6 6 0 0 0 -1.758-4.243zm-110.242-93.272 91.515 91.515h-69.515a22.025 22.025 0 0 1 -22-22zm-146 371.515a22.025 22.025 0 0 1 -22-22v-336a22.025 22.025 0 0 1 22-22h134v78a34.038 34.038 0 0 0 34 34h78v148.688a98.036 98.036 0 0 0 -64.492 119.312zm362-26a86.079 86.079 0 1 1 -86-86 86.1 86.1 0 0 1 86 86z"/><path d="m247 328h-144a6 6 0 0 0 0 12h144a6 6 0 0 0 0-12z"/><path d="m210 362h-107a6 6 0 0 0 0 12h107a6 6 0 0 0 0-12z"/><path d="m283.681 290.659v-11.12a14.918 14.918 0 0 0 9.852-13.564l5.415-40.961a6.079 6.079 0 0 0 .052-.786c0-11.543-7.794-21.158-18.02-23.1l-15.936-29.375c-5.419-9.715-13.4-20.868-27.09-20.868h-79.159c-11.082 0-20.813 7.437-27.415 20.948l-16.475 29.197c-10.293 1.87-17.905 11.385-17.905 23.198a5.937 5.937 0 0 0 .048.753l5.186 40.974a14.923 14.923 0 0 0 10.085 13.667v11.037a10.465 10.465 0 0 0 10.453 10.453h13.522a10.465 10.465 0 0 0 10.453-10.453v-10.222h102.506v10.222a10.465 10.465 0 0 0 10.453 10.453h13.522a10.465 10.465 0 0 0 10.453-10.453zm-141.76-113.084c.061-.109.119-.219.173-.331 2.6-5.362 8.226-14.356 16.7-14.356h79.159c5.89 0 10.858 4.4 16.575 14.652l12.6 23.223h-8.94a24.457 24.457 0 0 0 -47.714 0h-81.639zm103.63 23.188h-22.44a12.435 12.435 0 0 1 22.44 0zm-127.537 11.964c.181.017.362.036.546.036h158.534.087c5.934 0 9.657 5.695 9.814 11.1l-5.4 40.872a6.091 6.091 0 0 0 -.052.786 2.945 2.945 0 0 1 -2.905 2.907h-161.5a2.946 2.946 0 0 1 -2.906-2.907 5.94 5.94 0 0 0 -.048-.754l-5.176-40.892c.134-5.355 3.471-10.769 9.006-11.148zm16.733 76.385h-10.428v-8.675h10.428zm126.506 0v-8.675h10.428v8.675z"/><path d="m171.258 254.842h53.485a6 6 0 0 0 0-12h-53.485a6 6 0 0 0 0 12z"/><path d="m134.275 261.726a17.678 17.678 0 1 0 -17.675-17.678 17.7 17.7 0 0 0 17.675 17.678zm0-23.356a5.678 5.678 0 1 1 -5.677 5.678 5.684 5.684 0 0 1 5.677-5.678z"/><path d="m261.726 261.726a17.678 17.678 0 1 0 -17.678-17.678 17.7 17.7 0 0 0 17.678 17.678zm0-23.356a5.678 5.678 0 1 1 -5.678 5.678 5.684 5.684 0 0 1 5.678-5.678z"/><path d="m296 390.631a6 6 0 0 0 11.8 1.533 21.937 21.937 0 0 1 2.805-6.484 9.689 9.689 0 0 1 6.47-2.554 9.057 9.057 0 0 1 6.3 2.532 9.5 9.5 0 0 1 2.625 6.468 6 6 0 0 0 12 0 8.812 8.812 0 0 1 9.029-9 9.146 9.146 0 0 1 6.35 2.532 9.5 9.5 0 0 1 2.621 6.468v44.222a7.027 7.027 0 0 1 -14.054 0v-5.379a6 6 0 1 0 -12 0v5.379a19.027 19.027 0 0 0 38.054 0v-44.222a8.812 8.812 0 0 1 9.028-9 9 9 0 0 1 6.351 2.532 9.5 9.5 0 0 1 2.621 6.469 6 6 0 0 0 12 0 8.812 8.812 0 0 1 9.028-9h.043a9.066 9.066 0 0 1 6.29 2.516c.938 1.078 2.236 4.258 2.836 6.511a5.961 5.961 0 0 0 6.574 4.384 6.038 6.038 0 0 0 5.229-5.992 65.963 65.963 0 0 0 -65.96-65.92h-.121a66.037 66.037 0 0 0 -65.919 66.005zm65.923-54h.077a.177.177 0 0 0 .04 0 54.051 54.051 0 0 1 50.637 35.247 20.9 20.9 0 0 0 -5.677-.746 21.544 21.544 0 0 0 -14.778 5.963c-.076.071-.15.144-.222.22-.043-.044-.086-.088-.13-.131a20.972 20.972 0 0 0 -14.77-6.052h-.1a21.544 21.544 0 0 0 -14.778 5.963c-.076.071-.15.144-.222.22-.042-.044-.085-.088-.128-.131a20.962 20.962 0 0 0 -14.767-6.053 21.732 21.732 0 0 0 -14.884 5.964c-.075.071-.15.143-.221.219-.042-.044-.085-.087-.128-.13a20.962 20.962 0 0 0 -14.767-6.053 21.257 21.257 0 0 0 -5.8.788 54.068 54.068 0 0 1 50.619-35.288z"/></svg>