<svg id="Layer_1" height="512" viewBox="0 0 512 512" width="512" xmlns="http://www.w3.org/2000/svg" data-name="Layer 1"><path d="m362 391.99a14.787 14.787 0 0 1 15-14.86 15.144 15.144 0 0 1 10.67 4.33 15.442 15.442 0 0 1 4.33 10.67 14.789 14.789 0 0 1 15-15 15.144 15.144 0 0 1 10.67 4.33 18.515 18.515 0 0 1 3.16 5.65 36.786 36.786 0 0 1 1.17 3.52v-.08a59.947 59.947 0 0 0 -60-59.92h-.08a59.958 59.958 0 0 0 -59.92 59.96v.04s1.67-6.34 4.33-9.17a15.416 15.416 0 0 1 10.67-4.33 15.1 15.1 0 0 1 10.67 4.33 15.442 15.442 0 0 1 4.33 10.67 14.789 14.789 0 0 1 15-15 15.1 15.1 0 0 1 10.67 4.33 15.472 15.472 0 0 1 4.33 10.53zm0-93.99a91.891 91.891 0 1 1 -24 3.16 92 92 0 0 1 24-3.16z" fill="#e48e66"/><path d="m422 390.55v.08a36.786 36.786 0 0 0 -1.17-3.52 18.515 18.515 0 0 0 -3.16-5.65 15.144 15.144 0 0 0 -10.67-4.33 14.789 14.789 0 0 0 -15 15 15.442 15.442 0 0 0 -4.33-10.67 15.144 15.144 0 0 0 -10.67-4.33 14.787 14.787 0 0 0 -15 14.86 15.472 15.472 0 0 0 -4.33-10.53 15.1 15.1 0 0 0 -10.67-4.33 14.789 14.789 0 0 0 -15 15 15.442 15.442 0 0 0 -4.33-10.67 15.1 15.1 0 0 0 -10.67-4.33 15.416 15.416 0 0 0 -10.67 4.33c-2.66 2.83-4.33 9.17-4.33 9.17v-.04a59.958 59.958 0 0 1 59.92-59.96h.08a59.947 59.947 0 0 1 60 59.92z" fill="#6fe3ff"/><path d="m338 142v159.16a92.1 92.1 0 0 0 -62.28 120.84h-189.72a28.005 28.005 0 0 1 -28-28v-336a28.005 28.005 0 0 1 28-28h140v84a28.005 28.005 0 0 0 28 28zm-50.46 123.53 5.46-41.3c0-9.21-6.62-17.46-15.82-17.46v-.01h.03l-17.41-32.08c-5.39-9.67-11.85-17.79-21.85-17.79h-79.15c-10 0-17.44 8.12-22.1 17.74l-18.1 32.06c-9.19.02-15.6 8.34-15.6 17.54l5.23 41.3a8.935 8.935 0 0 0 8.9 8.91h1.19v16.22a4.447 4.447 0 0 0 4.45 4.45h13.52a4.456 4.456 0 0 0 4.46-4.45v-16.22h114.5v16.22a4.456 4.456 0 0 0 4.46 4.45h13.52a4.447 4.447 0 0 0 4.45-4.45v-16.22h.95a8.937 8.937 0 0 0 8.91-8.91z" fill="#f8ec7d"/><path d="m338 142h-84a28.005 28.005 0 0 1 -28-28v-84z" fill="#e48e66"/><path d="m293 224.23-5.46 41.3a8.937 8.937 0 0 1 -8.91 8.91h-161.5a8.935 8.935 0 0 1 -8.9-8.91l-5.23-41.3c0-9.2 6.41-17.52 15.6-17.54l-.04.07h158.62v.01c9.2 0 15.82 8.25 15.82 17.46zm-19.6 19.82a11.675 11.675 0 1 0 -11.67 11.68 11.679 11.679 0 0 0 11.67-11.68zm-127.45 0a11.675 11.675 0 1 0 -11.67 11.68 11.672 11.672 0 0 0 11.67-11.68z" fill="#6fe3ff"/><path d="m277.68 275.16v15.5a4.447 4.447 0 0 1 -4.45 4.45h-13.52a4.456 4.456 0 0 1 -4.46-4.45v-16.22h22.43z" fill="#e48e66"/><path d="m118.6 206.69 18.1-32.06c4.66-9.62 12.1-17.74 22.1-17.74h79.15c10 0 16.46 8.12 21.85 17.79l17.41 32.08h-24.42v-.61a18.46 18.46 0 1 0 -36.92 0v.61h-97.31z" fill="#e48e66"/><path d="m261.73 232.37a11.68 11.68 0 1 1 -11.68 11.68 11.679 11.679 0 0 1 11.68-11.68z" fill="#e48e66"/><path d="m252.79 206.15v.61h-36.92v-.61a18.46 18.46 0 1 1 36.92 0z" fill="#e48e66"/><path d="m134.28 232.37a11.68 11.68 0 1 1 -11.68 11.68 11.672 11.672 0 0 1 11.68-11.68z" fill="#e48e66"/><path d="m140.75 275.16v15.5a4.456 4.456 0 0 1 -4.46 4.45h-13.52a4.447 4.447 0 0 1 -4.45-4.45v-16.22h22.43z" fill="#e48e66"/><g fill="#63316d"><path d="m342.242 137.757-112-112a6 6 0 0 0 -4.242-1.757h-140a34.038 34.038 0 0 0 -34 34v336a34.038 34.038 0 0 0 34 34h185.651a98 98 0 1 0 72.349-134.336v-151.664a6 6 0 0 0 -1.758-4.243zm-110.242-93.272 91.515 91.515h-69.515a22.025 22.025 0 0 1 -22-22zm-168 349.515v-336a22.025 22.025 0 0 1 22-22h134v78a34.038 34.038 0 0 0 34 34h78v148.687a98.1 98.1 0 0 0 -64.508 119.313h-181.492a22.025 22.025 0 0 1 -22-22zm384-4a86.015 86.015 0 0 1 -166.655 29.913 86.01 86.01 0 1 1 166.655-29.913z"/><path d="m247 328h-144a6 6 0 0 0 0 12h144a6 6 0 0 0 0-12z"/><path d="m210 362h-107a6 6 0 0 0 0 12h107a6 6 0 0 0 0-12z"/><path d="m283.68 290.66v-11.118a14.923 14.923 0 0 0 9.853-13.567l5.415-40.959a6.068 6.068 0 0 0 .052-.786c0-11.541-7.792-21.154-18.017-23.1l-15.942-29.375c-5.415-9.716-13.389-20.869-27.091-20.869h-79.15c-11.087 0-20.818 7.439-27.415 20.95l-16.48 29.191c-10.291 1.873-17.905 11.399-17.905 23.203a5.94 5.94 0 0 0 .048.754l5.188 40.972a14.929 14.929 0 0 0 10.084 13.671v11.033a10.461 10.461 0 0 0 10.45 10.45h13.52a10.466 10.466 0 0 0 10.46-10.45v-10.22h102.5v10.22a10.466 10.466 0 0 0 10.46 10.45h13.52a10.461 10.461 0 0 0 10.45-10.45zm-141.755-113.08c.061-.11.12-.221.175-.334 2.6-5.362 8.22-14.356 16.7-14.356h79.15c5.9 0 10.862 4.4 16.576 14.652l12.6 23.218h-8.943a24.454 24.454 0 0 0 -47.708 0h-81.637zm103.621 23.18h-22.432a12.432 12.432 0 0 1 22.432 0zm-127.5 11.966c.17.014.339.034.512.034h158.419c.068 0 .134.01.2.01 5.935 0 9.658 5.7 9.815 11.1l-5.4 40.869a6.091 6.091 0 0 0 -.052.786 2.949 2.949 0 0 1 -2.91 2.91h-161.5a2.945 2.945 0 0 1 -2.9-2.91 5.939 5.939 0 0 0 -.047-.754l-5.178-40.89c.137-5.361 3.483-10.781 9.043-11.155zm16.7 76.384h-10.426v-8.67h10.43zm126.5 0v-8.67h10.43v8.67z"/><path d="m171.26 254.84h53.48a6 6 0 0 0 0-12h-53.48a6 6 0 0 0 0 12z"/><path d="m134.28 261.73a17.68 17.68 0 1 0 -17.68-17.68 17.7 17.7 0 0 0 17.68 17.68zm0-23.36a5.68 5.68 0 1 1 -5.68 5.68 5.682 5.682 0 0 1 5.68-5.68z"/><path d="m261.73 261.73a17.68 17.68 0 1 0 -17.68-17.68 17.694 17.694 0 0 0 17.68 17.68zm0-23.36a5.68 5.68 0 1 1 -5.68 5.68 5.682 5.682 0 0 1 5.68-5.68z"/><path d="m296 390.63a6 6 0 0 0 11.8 1.537 21.992 21.992 0 0 1 2.8-6.486 9.5 9.5 0 0 1 6.471-2.551 9.057 9.057 0 0 1 6.306 2.528 9.505 9.505 0 0 1 2.623 6.472 6 6 0 0 0 12 0 8.8 8.8 0 0 1 9.029-9 8.983 8.983 0 0 1 6.351 2.527 9.54 9.54 0 0 1 2.62 6.392v44.3a7.025 7.025 0 1 1 -14.05 0v-5.38a6 6 0 0 0 -12 0v5.38a19.025 19.025 0 0 0 38.05 0v-44.3a8.8 8.8 0 0 1 9.029-8.919 9.327 9.327 0 0 1 6.355 2.532 9.5 9.5 0 0 1 2.616 6.468 6 6 0 0 0 12 0 8.8 8.8 0 0 1 9.029-9 9.307 9.307 0 0 1 6.326 2.5 13.257 13.257 0 0 1 1.882 3.649c.607 1.561.961 2.874.962 2.878a6.006 6.006 0 0 0 11.8-1.616 65.947 65.947 0 0 0 -66.021-65.916h-.063a66.05 66.05 0 0 0 -65.915 66.005zm66.006-54h.051a54.029 54.029 0 0 1 50.623 35.247 21.843 21.843 0 0 0 -5.68-.747 21.263 21.263 0 0 0 -14.779 5.959c-.076.07-.15.143-.221.218-.043-.045-.088-.09-.133-.134a21 21 0 0 0 -14.762-6.043 21.44 21.44 0 0 0 -14.884 5.959c-.076.07-.15.143-.221.218-.041-.043-.083-.085-.125-.127a20.966 20.966 0 0 0 -14.77-6.05h-.105a21.263 21.263 0 0 0 -14.779 5.959c-.076.07-.15.143-.221.218-.041-.043-.083-.085-.125-.127a20.966 20.966 0 0 0 -14.77-6.05 20.618 20.618 0 0 0 -5.761.757 54.106 54.106 0 0 1 50.662-35.257z"/></g></svg>