<svg id="Layer_1" height="512" viewBox="0 0 512 512" width="512" xmlns="http://www.w3.org/2000/svg" data-name="Layer 1"><path d="m418.74 258.01h12.53a22.133 22.133 0 0 1 22.13 22.13v193.73a22.133 22.133 0 0 1 -22.13 22.13h-131.35a22.133 22.133 0 0 1 -22.13-22.13v-193.73a22.133 22.133 0 0 1 22.13-22.13h29.88a16.976 16.976 0 0 0 16.98 16.52h37.63a16.961 16.961 0 0 0 16.97-16.53l.37.01zm-79.49 144.78v-31.61h-31.61v31.61z" fill="#e48e66"/><path d="m243.22 204.81a31.178 31.178 0 0 1 31.62-31.33 31.84 31.84 0 0 1 22.48 9.13 32.5 32.5 0 0 1 9.14 22.49 31.182 31.182 0 0 1 31.62-31.62 31.84 31.84 0 0 1 22.48 9.13c2.82 2.99 5.1 7.82 6.68 11.91a77.862 77.862 0 0 1 2.46 7.42v-.17a126.411 126.411 0 0 0 -126.48-126.32h-.16a126.407 126.407 0 0 0 -126.32 126.4v.09s3.52-13.36 9.13-19.33a32.537 32.537 0 0 1 22.49-9.13 31.84 31.84 0 0 1 22.48 9.13 32.464 32.464 0 0 1 9.14 22.49 31.182 31.182 0 0 1 31.62-31.62 31.84 31.84 0 0 1 22.48 9.13 32.479 32.479 0 0 1 9.14 22.2zm184.61-4.19a184.544 184.544 0 0 1 -9.09 57.39h-16.99l-.37-.01c.01-.15.01-.3.01-.45a16.986 16.986 0 0 0 -16.98-16.99h-37.63a17 17 0 0 0 -16.99 16.99c0 .15 0 .31.01.46h-29.88a22.133 22.133 0 0 0 -22.13 22.13v101.97h-.58a185.718 185.718 0 0 1 -33.99 3.12c-101.96 0-184.62-82.65-184.62-184.61s82.66-184.62 184.62-184.62 184.61 82.66 184.61 184.62z" fill="#f8ec7d"/><path d="m329.8 258.01c-.01-.15-.01-.31-.01-.46a17 17 0 0 1 16.99-16.99h37.63a16.986 16.986 0 0 1 16.98 16.99c0 .15 0 .3-.01.45a16.961 16.961 0 0 1 -16.97 16.53h-37.63a16.976 16.976 0 0 1 -16.98-16.52z" fill="#6fe3ff"/><path d="m369.7 201.77v.17a77.862 77.862 0 0 0 -2.46-7.42c-1.58-4.09-3.86-8.92-6.68-11.91a31.84 31.84 0 0 0 -22.48-9.13 31.182 31.182 0 0 0 -31.62 31.62 32.5 32.5 0 0 0 -9.14-22.49 31.84 31.84 0 0 0 -22.48-9.13 31.178 31.178 0 0 0 -31.62 31.33 32.479 32.479 0 0 0 -9.14-22.2 31.84 31.84 0 0 0 -22.48-9.13 31.182 31.182 0 0 0 -31.62 31.62 32.464 32.464 0 0 0 -9.14-22.49 31.84 31.84 0 0 0 -22.48-9.13 32.537 32.537 0 0 0 -22.49 9.13c-5.61 5.97-9.13 19.33-9.13 19.33v-.09a126.407 126.407 0 0 1 126.32-126.4h.16a126.411 126.411 0 0 1 126.48 126.32z" fill="#6fe3ff"/><path d="m307.64 371.18h31.61v31.61h-31.61z" fill="#6fe3ff"/><g fill="#63316d"><path d="m307.64 347.33h7.03a6 6 0 0 0 0-12h-1.03v-19.61h19.8a6 6 0 0 0 11.813-1.49v-4.51a6 6 0 0 0 -6-6h-31.613a6 6 0 0 0 -6 6v31.61a6 6 0 0 0 6 6z"/><path d="m307.64 408.79h31.61a6 6 0 0 0 6-6v-31.61a6 6 0 0 0 -6-6h-31.61a6 6 0 0 0 -6 6v31.61a6 6 0 0 0 6 6zm6-31.61h19.61v19.61h-19.61z"/><path d="m314.67 458.25h-1.03v-19.61h19.61v.47a6 6 0 0 0 12 0v-6.47a6 6 0 0 0 -6-6h-31.61a6 6 0 0 0 -6 6v31.61a6 6 0 0 0 6 6h7.03a6 6 0 1 0 0-12z"/><path d="m328.573 325.387a6 6 0 0 0 -8.486 8.486l10.72 10.72a6 6 0 0 0 8.485 0l24.4-24.39a6 6 0 0 0 -8.484-8.488l-20.157 20.15z"/><path d="m355.208 435.607-20.158 20.158-6.477-6.478a6 6 0 0 0 -8.486 8.485l10.72 10.721a6 6 0 0 0 8.485 0l24.4-24.4a6 6 0 1 0 -8.484-8.486z"/><path d="m381.4 319.52a6 6 0 0 0 0 12h42.14a6 6 0 0 0 0-12z"/><path d="m423.54 380.98h-42.14a6 6 0 0 0 0 12h42.14a6 6 0 0 0 0-12z"/><path d="m423.54 442.44h-42.14a6 6 0 0 0 0 12h42.14a6 6 0 0 0 0-12z"/><path d="m243.22 391.23a192.812 192.812 0 0 0 28.57-2.14v84.78a28.162 28.162 0 0 0 28.13 28.13h131.35a28.162 28.162 0 0 0 28.13-28.13v-193.73a28.162 28.162 0 0 0 -28.13-28.13h-4.452a190.871 190.871 0 0 0 7.012-51.39c0-105.108-85.508-190.62-190.61-190.62s-190.62 85.512-190.62 190.62 85.511 190.61 190.62 190.61zm204.18-111.09v193.73a16.148 16.148 0 0 1 -16.13 16.13h-131.35a16.148 16.148 0 0 1 -16.13-16.13v-193.73a16.148 16.148 0 0 1 16.13-16.13h24.78a22.838 22.838 0 0 0 22.08 16.52h37.63a22.915 22.915 0 0 0 22.038-16.52h12.186.106s.043 0 .065 0h12.465a16.148 16.148 0 0 1 16.13 16.13zm-111.61-22.59a11 11 0 0 1 10.99-10.99h37.63a11 11 0 0 1 10.98 10.99v.115c0 .063-.007.126-.008.188a10.959 10.959 0 0 1 -10.972 10.677h-37.63a10.914 10.914 0 0 1 -10.98-10.677c0-.078 0-.085-.007-.163zm-92.57-235.55c98.486 0 178.61 80.129 178.61 178.62a178.764 178.764 0 0 1 -7.5 51.39h-7.614a23.019 23.019 0 0 0 -22.3-17.45h-37.636a22.958 22.958 0 0 0 -22.294 17.45h-24.566a28.162 28.162 0 0 0 -28.13 28.13v96.817a180.736 180.736 0 0 1 -28.57 2.273c-98.491 0-178.62-80.124-178.62-178.61s80.129-178.62 178.62-178.62z"/><path d="m122.542 203.468c.8-3.051 3.905-12.577 7.583-16.622a26.5 26.5 0 0 1 18.264-7.366h.127a25.679 25.679 0 0 1 18.037 7.331 26.423 26.423 0 0 1 7.427 18.29 6 6 0 0 0 12 0 25.193 25.193 0 0 1 25.648-25.62h.127a25.686 25.686 0 0 1 18.04 7.332 26.445 26.445 0 0 1 7.425 18.054v93.453a21.46 21.46 0 1 1 -42.92 0v-11.34a6 6 0 0 0 -12 0v11.34a33.46 33.46 0 0 0 66.92 0v-93.455a25.188 25.188 0 0 1 25.648-25.385h.132a25.68 25.68 0 0 1 18.036 7.329 26.46 26.46 0 0 1 7.424 18.291 6 6 0 0 0 12 0 25.193 25.193 0 0 1 25.648-25.62h.127a25.682 25.682 0 0 1 18.032 7.324c1.731 1.876 3.637 5.377 5.379 9.884 1.426 3.685 2.246 6.755 2.252 6.781a6 6 0 0 0 11.8-1.528v-.174c-.05-72.98-59.435-132.317-132.398-132.317h-.241c-72.959.05-132.319 59.45-132.319 132.49a6 6 0 0 0 11.8 1.528zm120.518-122.018h.233a120.626 120.626 0 0 1 117.344 93.358 37.543 37.543 0 0 0 -22.372-7.329 38.371 38.371 0 0 0 -26.784 10.758c-.09.085-.178.173-.263.264a41.65 41.65 0 0 0 -4.76 6.092 41.567 41.567 0 0 0 -4.77-6.1c-.052-.056-.106-.111-.161-.165a37.59 37.59 0 0 0 -26.5-10.853h-.184a38.312 38.312 0 0 0 -26.6 10.757c-.089.084-.175.17-.259.258a41.535 41.535 0 0 0 -4.764 6.09 41.267 41.267 0 0 0 -4.776-6.094c-.05-.054-.1-.107-.155-.159a37.59 37.59 0 0 0 -26.5-10.853 38.344 38.344 0 0 0 -26.789 10.764c-.089.084-.176.17-.26.259a41.6 41.6 0 0 0 -4.762 6.09 41.536 41.536 0 0 0 -4.774-6.093c-.052-.056-.1-.11-.158-.162a37.385 37.385 0 0 0 -26.686-10.852 37.825 37.825 0 0 0 -22.576 7.414 120.643 120.643 0 0 1 117.276-93.444z"/></g></svg>