<svg xmlns="http://www.w3.org/2000/svg" height="512" width="512" data-name="Layer 1" style=""><rect id="backgroundrect" width="100%" height="100%" x="0" y="0" fill="none" stroke="none"/><g class="currentLayer" style=""><title>Layer 1</title><path d="m307.644 347.325h7.024a6 6 0 0 0 0-12h-1.024v-19.609h19.794a6 6 0 0 0 11.815-1.485v-4.515a6 6 0 0 0 -6-6h-31.609a6 6 0 0 0 -6 6v31.609a6 6 0 0 0 6 6z" id="svg_1" class="" fill="#ffffff" fill-opacity="1"/><path d="m307.644 408.787h31.609a6 6 0 0 0 6-6v-31.609a6 6 0 0 0 -6-6h-31.609a6 6 0 0 0 -6 6v31.609a6 6 0 0 0 6 6zm6-31.609h19.609v19.609h-19.609z" id="svg_2" class="" fill="#ffffff" fill-opacity="1"/><path d="m314.669 458.249h-1.025v-19.609h19.609v.466a6 6 0 0 0 12 0v-6.466a6 6 0 0 0 -6-6h-31.609a6 6 0 0 0 -6 6v31.609a6 6 0 0 0 6 6h7.025a6 6 0 0 0 0-12z" id="svg_3" class="" fill="#ffffff" fill-opacity="1"/><path d="m355.205 311.713-20.156 20.155-6.481-6.48a6 6 0 0 0 -8.484 8.486l10.723 10.726a6 6 0 0 0 8.484 0l24.4-24.4a6 6 0 1 0 -8.484-8.485z" id="svg_4" class="" fill="#ffffff" fill-opacity="1"/><path d="m355.205 435.608-20.156 20.156-6.481-6.48a6 6 0 0 0 -8.484 8.485l10.723 10.723a6 6 0 0 0 8.484 0l24.4-24.4a6 6 0 1 0 -8.484-8.486z" id="svg_5" class="" fill="#ffffff" fill-opacity="1"/><path d="m381.4 319.521a6 6 0 0 0 0 12h42.145a6 6 0 0 0 0-12z" id="svg_6" class="" fill="#ffffff" fill-opacity="1"/><path d="m423.543 380.982h-42.143a6 6 0 0 0 0 12h42.145a6 6 0 0 0 0-12z" id="svg_7" class="" fill="#ffffff" fill-opacity="1"/><path d="m423.543 442.445h-42.143a6 6 0 0 0 0 12h42.145a6 6 0 0 0 0-12z" id="svg_8" class="" fill="#ffffff" fill-opacity="1"/><path d="m243.219 391.231a192.628 192.628 0 0 0 28.571-2.142v84.783a28.16 28.16 0 0 0 28.129 28.128h131.35a28.159 28.159 0 0 0 28.131-28.128v-193.729a28.159 28.159 0 0 0 -28.127-28.128h-4.452a190.8 190.8 0 0 0 7.017-51.4c-.004-105.105-85.514-190.615-190.619-190.615s-190.619 85.51-190.619 190.615 85.513 190.616 190.619 190.616zm204.181-111.088v193.729a16.146 16.146 0 0 1 -16.131 16.128h-131.35a16.146 16.146 0 0 1 -16.129-16.128v-193.729a16.146 16.146 0 0 1 16.129-16.128h24.807a23.021 23.021 0 0 0 22.052 16.517h37.63a23.024 23.024 0 0 0 22.054-16.517h12.138.159 12.514a16.146 16.146 0 0 1 16.127 16.128zm-111.6-22.6a11 11 0 0 1 10.985-10.985h37.63a10.986 10.986 0 1 1 0 21.971h-37.63a11 11 0 0 1 -10.992-10.983zm-92.581-235.543c98.488 0 178.615 80.126 178.615 178.615a178.618 178.618 0 0 1 -7.511 51.4h-7.606a23.023 23.023 0 0 0 -22.309-17.454h-37.63a23.024 23.024 0 0 0 -22.308 17.454h-24.551a28.16 28.16 0 0 0 -28.129 28.128v96.812a180.6 180.6 0 0 1 -28.571 2.276c-98.489 0-178.619-80.131-178.619-178.616s80.13-178.615 178.619-178.615z" id="svg_9" class="" fill="#ffffff" fill-opacity="1"/><path d="m122.54 203.469c1.206-4.552 4.317-13.026 7.589-16.622a26.462 26.462 0 0 1 18.259-7.371h.125a25.707 25.707 0 0 1 18.043 7.334 26.462 26.462 0 0 1 7.423 18.287 6 6 0 0 0 12 0 25.212 25.212 0 0 1 25.774-25.621 25.709 25.709 0 0 1 18.047 7.334 26.466 26.466 0 0 1 7.423 18.287v93.219a21.46 21.46 0 0 1 -42.92 0v-11.338a6 6 0 0 0 -12 0v11.338a33.46 33.46 0 0 0 66.92 0v-93.216a25.212 25.212 0 0 1 25.773-25.618 25.713 25.713 0 0 1 18.044 7.333 26.465 26.465 0 0 1 7.423 18.288 6 6 0 0 0 12 0 25.212 25.212 0 0 1 25.773-25.621 25.709 25.709 0 0 1 18.038 7.327c3.287 3.571 6.418 12.093 7.626 16.659a6 6 0 0 0 11.8-1.527v-.168c-.047-72.978-59.43-132.316-132.4-132.316h-.248a132.4 132.4 0 0 0 -132.313 132.484 6 6 0 0 0 11.8 1.528zm35.407-86.695a119.615 119.615 0 0 1 85.109-35.32h.163.081a120.615 120.615 0 0 1 117.337 93.356 37.569 37.569 0 0 0 -22.375-7.331h-.183a38.274 38.274 0 0 0 -26.6 10.766c-.087.083-.173.169-.256.257a41.461 41.461 0 0 0 -4.766 6.093 41.461 41.461 0 0 0 -4.766-6.093c-.053-.057-.108-.113-.164-.169a37.623 37.623 0 0 0 -26.508-10.854h-.182a38.274 38.274 0 0 0 -26.6 10.766c-.088.082-.173.168-.256.256a41.634 41.634 0 0 0 -4.766 6.091 41.582 41.582 0 0 0 -4.766-6.093c-.054-.057-.108-.113-.164-.168a37.621 37.621 0 0 0 -26.508-10.855h-.177a38.276 38.276 0 0 0 -26.6 10.766c-.088.083-.174.169-.257.257a41.635 41.635 0 0 0 -4.765 6.092 41.764 41.764 0 0 0 -4.766-6.092c-.054-.057-.109-.113-.164-.167a37.614 37.614 0 0 0 -26.508-10.856h-.182a37.8 37.8 0 0 0 -22.615 7.447 119.622 119.622 0 0 1 32.204-58.149z" id="svg_10" class="" fill="#ffffff" fill-opacity="1"/></g></svg>