<svg id="Layer_1" height="512" viewBox="0 0 512 512" width="512" xmlns="http://www.w3.org/2000/svg" data-name="Layer 1"><path d="m163.692 163.207h192.821a6 6 0 1 0 0-12h-192.821a6 6 0 0 0 0 12z"/><path d="m163.692 224.745h192.821a6 6 0 1 0 0-12h-192.821a6 6 0 0 0 0 12z"/><path d="m163.692 276.027h192.821a6 6 0 0 0 0-12h-192.821a6 6 0 0 0 0 12z"/><path d="m502 359.138a31.641 31.641 0 1 0 -37.641 31.062v58.443h-44.411v-352.975a6 6 0 0 0 -6-6h-55.538v-63.984a6 6 0 0 0 -6-6h-184.61a6 6 0 0 0 -6 6v63.984h-55.543a6 6 0 0 0 -6 6v160.2l-86.894 42.511a6 6 0 0 0 -3.363 5.39v84.59c0 9.37 2.56 19.832 7.4 30.254 6.2 13.347 15.44 24.87 25.343 31.616l60.245 41.046a6 6 0 0 0 6.756 0l44.962-30.632h341.294a6 6 0 0 0 0-12h-19.641v-58.443a31.689 31.689 0 0 0 25.641-31.062zm-328.2-327.454h172.61v57.984h-172.61zm234.153 69.984v346.975h-59.799v-28.668a6 6 0 0 0 -6-6h-29.9v-91.1a6 6 0 0 0 -6-6h-92.306a6 6 0 0 0 -6 6v91.1h-10.573a70.833 70.833 0 0 0 5.359-25.616v-84.459a6 6 0 0 0 -3.357-5.387l-87.12-42.748v-154.097zm-216.403 324.307h144.6v22.668h-163.967c7.454-5.643 14.152-13.664 19.367-22.668zm74.55-12.358v-84.739h34.154v85.1h-80.306v-85.1h34.152v84.739zm-159.736 65.44-56.864-38.745c-8.167-5.563-15.9-15.312-21.216-26.755-4.053-8.722-6.284-17.671-6.284-25.198v-80.846l84.363-41.278 84.371 41.4v80.725c0 18.008-12.593 41.8-27.5 51.953zm344.354-119.919a19.641 19.641 0 1 1 19.641 19.64 19.664 19.664 0 0 1 -19.641-19.64z"/><path d="m140.415 344.658-44.988 43.879-23.108-22.537a6 6 0 0 0 -8.379 8.59l27.3 26.623a6 6 0 0 0 8.379 0l49.178-47.965a6 6 0 0 0 -8.379-8.59z"/></svg>