<svg id="Layer_1" height="512" viewBox="0 0 512 512" width="512" xmlns="http://www.w3.org/2000/svg" data-name="Layer 1"><circle cx="470.36" cy="359.14" fill="#22b573" r="25.64"/><path d="m260.1 322.88h-46.15v97.09h-25.96c5.4-10.26 8.74-21.59 8.74-31.61v-84.47l-90.36-44.34-.09.04-.02-.04v-163.88h307.69v358.97h-71.8v-34.67h-35.89v-97.09z" fill="#f8ec7d"/><path d="m352.41 93.86v1.81h-184.62v-1.81-68.18h184.62z" fill="#e2d574"/><path d="m306.26 419.97h35.89v34.67h-188.97l-.1-.15 13.53-9.22c8.36-5.69 15.92-14.95 21.38-25.3z" fill="#6fe3ff"/><path d="m260.1 322.88h46.16v97.09h-46.16z" fill="#cc7350"/><path d="m213.95 322.88h46.15v97.09h-46.15z" fill="#e48e66"/><path d="m187.99 419.97c-5.46 10.35-13.02 19.61-21.38 25.3l-13.53 9.22-46.71 31.83-60.25-41.05c-9.38-6.39-17.75-17.3-23.28-29.19-4.27-9.2-6.84-18.99-6.84-27.72v-84.59l90.28-44.18.09-.04 90.36 44.34v84.47c0 10.02-3.34 21.35-8.74 31.61z" fill="#e48e66"/><g fill="#63316d"><path d="m163.69 163.21h192.82a6 6 0 0 0 0-12h-192.82a6 6 0 0 0 0 12z"/><path d="m163.69 224.75h192.82a6 6 0 0 0 0-12h-192.82a6 6 0 0 0 0 12z"/><path d="m163.69 276.03h192.82a6 6 0 0 0 0-12h-192.82a6 6 0 0 0 0 12z"/><path d="m502 359.14a31.64 31.64 0 1 0 -37.64 31.06v58.44h-44.41v-352.97a6 6 0 0 0 -6-6h-55.54v-63.99a6 6 0 0 0 -6-6h-184.62a6 6 0 0 0 -6 6v63.99h-55.53a6 6 0 0 0 -6 6v160.186l-86.9 42.524a6 6 0 0 0 -3.36 5.39v84.59c0 9.359 2.558 19.818 7.4 30.25 6.211 13.354 15.449 24.878 25.343 31.618l60.25 41.05a6 6 0 0 0 6.757 0l44.96-30.638h341.29a6 6 0 0 0 0-12h-19.64v-58.44a31.689 31.689 0 0 0 25.64-31.06zm-328.21-327.46h172.62v57.99h-172.62zm234.16 69.99v346.97h-59.8v-28.67a6 6 0 0 0 -6-6h-29.89v-91.09a6 6 0 0 0 -6-6h-92.31a6 6 0 0 0 -6 6v91.09h-10.6a70.695 70.695 0 0 0 5.376-25.61v-84.47a6 6 0 0 0 -3.356-5.387l-87.11-42.747v-154.086zm-216.431 324.3h144.631v22.67h-163.967c7.223-5.475 13.949-13.364 19.336-22.67zm108.741-12h-34.16v-85.09h34.16zm-46.16 0h-34.15v-85.09h34.15zm-147.73 65.09-56.87-38.749c-8.161-5.558-15.9-15.311-21.218-26.756-4.051-8.731-6.282-17.678-6.282-25.195v-80.846l84.362-41.285 84.368 41.4v80.731c0 8.718-2.858 18.952-8.046 28.81-5.179 9.818-12.268 18.252-19.453 23.142zm344.35-119.92a19.64 19.64 0 1 1 19.64 19.64 19.662 19.662 0 0 1 -19.64-19.64z"/><path d="m140.41 344.655-44.98 43.883-23.111-22.538a6 6 0 0 0 -8.379 8.59l27.3 26.63a6 6 0 0 0 8.379 0l49.17-47.97a6 6 0 1 0 -8.379-8.59z"/></g></svg>