<svg height="512" viewBox="0 0 58 58" width="512" xmlns="http://www.w3.org/2000/svg"><g id="Page-1" fill="none" fill-rule="evenodd"><g id="005---Get-Points" fill-rule="nonzero"><path id="Shape" d="m38.964 20.276 2.951 6.215c.3062072.6684018.9260586 1.139669 1.652 1.256l6.546.989c.8496854.168683 1.5377678.7909576 1.7907319 1.6194673s.0298199 1.7290039-.5807319 2.3435327l-4.7 4.759c-.5310248.547407-.7694576 1.3150716-.642 2.067l1.119 6.753c.1802884.8371032-.1362581 1.7033388-.8137961 2.2269685-.6775379.5236297-1.5955988.6115503-2.3602039.2260315l-5.915-3.231c-.6296357-.3458411-1.3923643-.3458411-2.022 0l-5.914 3.232c-.7648647.3863094-1.6836674.2986157-2.361647-.2254039-.6779797-.5240196-.994416-1.3910586-.813353-2.2285961l1.114-6.753c.1274576-.7519284-.1109752-1.519593-.642-2.067l-4.7-4.759c-.6105518-.6145288-.833696-1.515023-.5807319-2.3435327s.9410465-1.4507843 1.7907319-1.6194673l6.546-.989c.7259414-.116331 1.3457928-.5875982 1.652-1.256l2.951-6.215c.3421644-.7808803 1.1139447-1.2853233 1.9665-1.2853233s1.6243356.504443 1.9665 1.2853233z" fill="#f3d55b"/><path id="Shape" d="m46.63 37.456c-.5317274.5484418-.7727614 1.3160424-.65 2.07l1.12 6.75c.1802227.8387118-.1368654 1.7064231-.8153927 2.2313216s-1.5980705.6138264-2.3646073.2286784l-5.91-3.236c-.6304265-.3399448-1.3895735-.3399448-2.02 0l-5.91 3.24c-.7665368.385148-1.68608.2962201-2.3646073-.2286784s-.9956154-1.3926098-.8153927-2.2313216l.25-1.49c14.85-8.98 12.54-21.15 11.19-25.32.2639569.2208924.4756971.4975206.62.81l2.95 6.22c.3146297.6638695.9350415 1.1310471 1.66 1.25l6.54.99c.8492921.1681574 1.5372347.7898564 1.7902315 1.6178459s.0300279 1.7280226-.5802315 2.3421541z" fill="#f0c419"/><path id="Shape" d="m21.569 1.023 2.361 4.977c.2468047.53213581.7418529.90688844 1.321 1l5.236.791c.6796658.1348772 1.2301396.63250457 1.4326979 1.29515655s.0243954 1.38300765-.4636979 1.87484345l-3.756 3.806c-.4247557.4381109-.6152889 1.0524224-.513 1.654l.891 5.4c.1434605.6694488-.1099789 1.3618217-.6517258 1.780454-.5417468.4186323-1.2756594.4892309-1.8872742.181546l-4.732-2.583c-.5031633-.2779638-1.1138367-.2779638-1.617 0l-4.731 2.585c-.6116148.3076849-1.3455274.2370863-1.8872742-.181546-.5417469-.4186323-.7951863-1.1110052-.6517258-1.780454l.891-5.4c.1022889-.6015776-.0882443-1.2158891-.513-1.654l-3.757-3.808c-.48809333-.4918358-.66625615-1.21219147-.46369786-1.87484345.20255828-.66265198.75303203-1.16027935 1.43269786-1.29515655l5.236-.791c.5791471-.09311156 1.0741953-.46786419 1.321-1l2.361-4.972c.2738022-.62229926.8890018-1.02443338 1.5688715-1.02551563.6798697-.00108226 1.2963465.39909123 1.5721285 1.02051563z" fill="#f3d55b"/><path id="Shape" d="m27.7 14.766c-.4253538.4387701-.6181765 1.0528363-.52 1.656l.9 5.4c.1440646.6707313-.109467 1.3646296-.652006 1.7844946-.5425389.419865-1.2778494.4912208-1.890994.1835054l-4.731-2.59c-.5039673-.2720322-1.1110327-.2720322-1.615 0l-4.728 2.592c-.6131446.3077154-1.3484551.2363596-1.890994-.1835054-.542539-.419865-.7960706-1.1137633-.652006-1.7844946l.2-1.192c11.88-7.186 10.03-16.92 8.95-20.256.2126165.17628912.3833998.39762426.5.648l2.356 4.976c.2517861.53102847.748075.90473998 1.328 1l5.231.792c.6795195.13440265 1.2299839.63176225 1.4323989 1.29421144s.0239486 1.38253766-.4643989 1.87378856z" fill="#f0c419"/><path id="Shape" d="m45.54 43.96 7.48-6.26c1.2342078-1.0365035 3.0650432-.9203343 4.1583449.2638531 1.0933018 1.1841875 1.0632109 3.0184579-.0683449 4.1661469l-12.48 12.71c-.7044456.7144301-1.6571305 1.1298866-2.66 1.16h-18.06c-1.2776824.0019108-2.5434.2462317-3.73.72l-3.18 1.28h-17v-2s5-4 7-6c8-8 13.97-9 17.97-9 1.620446-.0058063 3.1916155.5568422 4.44 1.59.3433521.2732738.7712507.4182643 1.21.41h10.3c.6015118.0853297 1.1835521.2748312 1.72.56.1552035.10917.3022584.2294876.44.36.3868407.3941108.6687594.8788735.82 1.41z" fill="#f9c795"/><path id="Shape" d="m45.99 45.78c.078259 1.0977657-.3060732 2.1782467-1.06 2.98-.7666928.795615-1.8250979 1.2435407-2.93 1.24h-11c-.5522847 0-1-.4477153-1-1s.4477153-1 1-1h11c.5577075.0061878 1.0932267-.2181513 1.48-.62.3720171-.3993054.5604998-.9357562.52-1.48-.0178751-.1923902-.051318-.3830146-.1-.57-.01 0 1.64-1.37 1.64-1.37.2639873.5726654.4166984 1.1902969.45 1.82z" fill="#f0785a"/><path id="Shape" d="m45.915 2.6 1.377 2.9c.1435637.31139004.4325438.53102995.771.586l3.055.462c.395021.08074619.7142117.37113352.8318456.75678074.1176339.38564721.0148578.80474699-.2678456 1.09221926l-2.191 2.22c-.2482517.2553696-.3597092.6138912-.3.965l.519 3.151c.0836883.3905194-.0641012.7944178-.3800683 1.0387003s-.7440642.2856171-1.1009317.1062997l-2.759-1.509c-.2937212-.1609855-.6492788-.1609855-.943 0l-2.76 1.509c-.3568675.1793174-.7849646.1379828-1.1009317-.1062997s-.4637566-.6481809-.3800683-1.0387003l.52-3.151c.0592121-.3510755-.0521766-.7093759-.3-.965l-2.191-2.22c-.282718-.28761172-.3853763-.70687596-.2675196-1.09256982.1178567-.38569385.4373289-.67596741.8325196-.75643018l3.054-.462c.3386003-.05463408.6277215-.27438118.771-.586l1.377-2.9c.1590572-.36440813.5188916-.59996531.9165-.59996531s.7574428.23555718.9165.59996531z" fill="#f3d55b"/><path id="Shape" d="m49.493 10.614c-.2471152.2560439-.3583907.6139802-.3.965l.523 3.15c.0842766.3914372-.0636511.7964937-.3803556 1.0414915s-.7459334.2864211-1.1036444.1065085l-2.762-1.512c-.2938822-.1589591-.6481178-.1589591-.942 0l-2.758 1.512c-.357711.1799126-.7869399.1384893-1.1036444-.1065085s-.4646322-.6500543-.3803556-1.0414915l.117-.695c6.929-4.19 5.851-9.869 5.221-11.815.1231199.1033017.2221081.23232762.29.378l1.376 2.903c.1470589.30969688.4366732.52756158.775.583l3.051.462c.3947778.08069082.7138429.37077147.8316529.75610422.1178101.38533274.0155083.8042404-.2666529 1.09189578z" fill="#f0c419"/></g></g></svg>