<svg width="213.84" height="46.97800000000001" xmlns="http://www.w3.org/2000/svg">

 <g>
  <title>background</title>
  <rect fill="none" id="canvas_background" height="402" width="582" y="-1" x="-1"/>
 </g>
 <g>
  <title>Layer 1</title>
  <g id="svg_1">
   <rect id="svg_2" height="46.978" width="46.978" fill="#007481"/>
   <path id="svg_3" d="m42.774,43.6c-0.647,-0.591 -1.512,-2.132 -2.596,-4.622l-16.258,-37.615l-0.005,0c-0.091,-0.24 -0.338,-0.416 -0.642,-0.416c-0.302,0 -0.552,0.176 -0.644,0.416l-0.008,0l-13.593,32.56c-2.038,4.883 -3.474,7.868 -4.313,8.959s-2.097,1.734 -3.774,1.926l0,1.23l12.93,0l0,-1.23c-1.528,-0.129 -2.565,-0.322 -3.117,-0.582c-0.893,-0.428 -1.338,-1.203 -1.338,-2.32c0,-0.559 0.166,-1.316 0.495,-2.272c0.33,-0.956 1.343,-3.604 3.034,-7.946l1.107,-2.689l7.513,-18.272l7.477,18.272l1.102,2.689l2.61,6.381c0.386,0.905 0.681,1.764 0.891,2.58c0.215,0.818 0.321,1.388 0.321,1.711c0,0.966 -0.276,1.574 -0.826,1.819c-0.552,0.248 -1.783,0.458 -3.689,0.63l0,1.23l16.591,0l0,-1.23c-1.531,-0.217 -2.622,-0.62 -3.268,-1.209" fill="#FFFFFF"/>
   <path id="svg_4" d="m46.978,0l-0.533,0c-1.748,9.856 -7.021,18.519 -14.625,24.981c5.835,-6.911 9.163,-15.477 10.48,-24.981l-0.551,0c-1.473,10.498 -5.584,19.836 -12.512,27.024c-8.025,5.916 -18.169,9.559 -29.237,9.996l0,0.551c9.984,-0.396 19.23,-3.364 26.877,-8.26c-7.318,6.643 -16.627,11.066 -26.877,12.375l0,0.546c11.513,-1.439 21.869,-6.795 29.59,-14.787c9.064,-6.695 15.421,-16.266 17.387,-27.309l0,-0.136l0.001,0z" fill="#FFFFFF"/>
   <path id="svg_5" d="m67.05,28.466l-17.639,0l0,-0.825l0.587,0c0.469,0 0.886,-0.203 1.251,-0.609c0.365,-0.405 0.651,-0.858 0.86,-1.356c0.079,-0.184 0.138,-0.38 0.176,-0.589c0.039,-0.21 0.059,-0.394 0.059,-0.551l0,-20.487c0,-0.603 -0.221,-1.126 -0.665,-1.573c-0.444,-0.445 -0.964,-0.668 -1.564,-0.668l-0.586,0l0,-0.865l2.21,0l2.209,0l2.21,0l2.21,0l0,0.865l-0.588,0c-0.599,0 -1.122,0.216 -1.564,0.648c-0.443,0.433 -0.665,0.963 -0.665,1.593l0,20.486l0,0.098l0,0.099c0.053,0.577 0.307,1.107 0.763,1.592c0.456,0.485 0.983,0.728 1.583,0.728l5.241,0.039c0.887,0 1.708,-0.339 2.464,-1.022c0.756,-0.682 1.316,-1.427 1.682,-2.24c0.079,-0.13 0.144,-0.268 0.196,-0.413c0.052,-0.143 0.091,-0.28 0.117,-0.412l0.782,0.196l-1.329,5.266z" fill="#ffffff"/>
   <path id="svg_6" d="m89.304,28.466l-17.639,0l0,-0.825l0.586,0c0.47,0 0.887,-0.203 1.252,-0.609c0.365,-0.405 0.652,-0.858 0.86,-1.356c0.079,-0.184 0.137,-0.38 0.176,-0.589c0.039,-0.21 0.059,-0.394 0.059,-0.551l0,-20.487c0,-0.603 -0.222,-1.126 -0.665,-1.573c-0.443,-0.445 -0.964,-0.668 -1.564,-0.668l-0.587,0l0,-0.865l2.21,0l2.209,0l2.21,0l2.209,0l0,0.865l-0.587,0c-0.6,0 -1.121,0.216 -1.564,0.648c-0.443,0.433 -0.665,0.963 -0.665,1.593l0,20.486l0,0.098l0,0.099c0.052,0.577 0.306,1.107 0.763,1.592c0.456,0.485 0.983,0.728 1.583,0.728l5.241,0.039c0.887,0 1.708,-0.339 2.464,-1.022c0.756,-0.682 1.316,-1.427 1.682,-2.24c0.079,-0.13 0.144,-0.268 0.196,-0.413c0.052,-0.143 0.091,-0.28 0.117,-0.412l0.783,0.196l-1.329,5.266z" fill="#ffffff"/>
   <path id="svg_7" d="m98.398,28.466l-4.479,0l-0.039,-0.825l0.548,0c0.468,0 0.905,-0.21 1.309,-0.629c0.405,-0.419 0.697,-0.878 0.88,-1.376c0.052,-0.156 0.098,-0.32 0.137,-0.492c0.039,-0.17 0.059,-0.334 0.059,-0.491l0,-20.604c0,-0.603 -0.222,-1.126 -0.665,-1.573c-0.443,-0.445 -0.964,-0.668 -1.564,-0.668l-0.294,0l-0.293,0l0,-0.865l4.4,0l4.4,0l0,0.865l-0.293,0l-0.293,0c-0.601,0 -1.122,0.223 -1.565,0.668c-0.443,0.446 -0.665,0.97 -0.665,1.573l0,20.603c0,0.157 0.02,0.321 0.059,0.491c0.04,0.172 0.084,0.336 0.137,0.492c0.183,0.498 0.469,0.957 0.86,1.376s0.835,0.629 1.33,0.629l0.548,0l0,0.825l-4.517,0l0,0.001z" fill="#ffffff"/>
   <path id="svg_8" d="m117.816,4.6l-3.48,12.624l7.51,0l-4.03,-12.624zm5.242,23.866l0,-0.825l0.587,0c0.26,0 0.508,-0.06 0.742,-0.178s0.417,-0.268 0.549,-0.451c0.077,-0.078 0.137,-0.164 0.175,-0.255c0.04,-0.092 0.059,-0.191 0.059,-0.295c0.026,-0.054 0.04,-0.1 0.04,-0.139l0,-0.137c0,-0.079 -0.008,-0.157 -0.021,-0.236c-0.013,-0.08 -0.032,-0.158 -0.058,-0.236l-2.582,-6.682l-8.84,0l-1.838,5.464c-0.026,0.079 -0.045,0.15 -0.059,0.216c-0.014,0.064 -0.02,0.138 -0.02,0.217c-0.026,0.078 -0.039,0.15 -0.039,0.215l0,0.218c0,0.444 0.123,0.864 0.372,1.257c0.247,0.394 0.618,0.682 1.113,0.865c0.157,0.027 0.333,0.059 0.528,0.098s0.398,0.06 0.607,0.06l0,0.825l-8.214,0l0,-0.825l0.586,0c0.13,0 0.274,-0.021 0.43,-0.06c0.157,-0.039 0.313,-0.098 0.47,-0.176c0.364,-0.185 0.729,-0.439 1.095,-0.768s0.678,-0.674 0.939,-1.041c0.129,-0.184 0.24,-0.367 0.332,-0.551s0.162,-0.354 0.215,-0.511l7.119,-23.592l2.502,0l8.214,23.592c0.079,0.157 0.169,0.334 0.274,0.53c0.104,0.196 0.234,0.387 0.391,0.57c0.26,0.314 0.554,0.623 0.881,0.924c0.325,0.301 0.67,0.557 1.035,0.768c0.182,0.078 0.365,0.15 0.548,0.215c0.183,0.066 0.364,0.099 0.548,0.099l0.586,0l0,0.825l-9.266,0z" fill="#ffffff"/>
   <path id="svg_9" d="m164.156516,1.809c-0.495,0 -0.945,0.21 -1.35,0.628c-0.403,0.42 -0.698,0.879 -0.88,1.377c-0.053,0.156 -0.098,0.313 -0.137,0.471s-0.059,0.314 -0.059,0.472l0,23.708l-1.252,0l-18.577,-22.726l0,18.915c0,0.156 0.021,0.32 0.06,0.49c0.039,0.172 0.083,0.335 0.136,0.492c0.183,0.498 0.471,0.957 0.861,1.376s0.821,0.63 1.291,0.63l1.447,0l0,0.824l-2.191,0l-2.15,0l-2.19,0l-2.19,0l0,-0.824l0.939,0c0.469,0 0.898,-0.211 1.29,-0.63s0.678,-0.878 0.86,-1.376c0.053,-0.157 0.098,-0.32 0.137,-0.492c0.04,-0.17 0.059,-0.334 0.059,-0.49l0,-20.644c-0.703,-0.681 -1.48,-1.219 -2.326,-1.611c-0.848,-0.394 -1.768,-0.59 -2.758,-0.59l0,-0.865l7.235,0l17.757,21.665l0,-17.852c0,-0.158 -0.014,-0.314 -0.039,-0.472c-0.026,-0.158 -0.078,-0.315 -0.156,-0.471c-0.184,-0.499 -0.469,-0.957 -0.861,-1.377c-0.391,-0.418 -0.834,-0.628 -1.329,-0.628l-1.408,0l0,-0.865l8.995,0l0,0.865l-1.214,0z" fill="#ffffff"/>
   <path id="svg_10" d="m186.828,27.442c-1.426,0.572 -2.886,0.9 -4.38,0.982c-0.163,0.027 -0.319,0.041 -0.469,0.041l-0.427,0c-3.641,-0.027 -6.92,-1.33 -9.84,-3.91c-2.92,-2.58 -4.38,-5.849 -4.38,-9.808c0,-3.985 1.474,-7.282 4.421,-9.889c2.946,-2.606 6.32,-3.911 10.123,-3.911c0.951,0 1.902,0.089 2.854,0.267c0.95,0.177 1.887,0.457 2.811,0.839c0.082,0.028 0.163,0.048 0.245,0.062c0.081,0.014 0.163,0.021 0.244,0.021c0.163,0 0.325,-0.021 0.489,-0.062c0.162,-0.041 0.298,-0.103 0.407,-0.184c0.108,-0.082 0.204,-0.184 0.285,-0.307c0.081,-0.124 0.135,-0.239 0.163,-0.349l0.855,0.123l0,6.634l-0.938,0c-0.271,-0.792 -0.652,-1.467 -1.141,-2.027c-0.489,-0.559 -1.032,-1.044 -1.629,-1.454c-0.57,-0.354 -1.176,-0.641 -1.814,-0.859c-0.638,-0.217 -1.283,-0.368 -1.935,-0.45c-0.19,-0.028 -0.381,-0.048 -0.57,-0.063c-0.19,-0.013 -0.381,-0.02 -0.571,-0.02c-3.068,0 -5.548,1.208 -7.434,3.624c-1.889,2.416 -2.833,5.084 -2.833,8.005l0,0.062l0,0.061c0.026,2.867 0.985,5.495 2.872,7.883c1.889,2.388 4.353,3.583 7.395,3.583c1.767,0 3.348,-0.396 4.747,-1.188c1.398,-0.791 2.519,-1.952 3.36,-3.48l0.938,0l0,3.521c-1.139,0.929 -2.422,1.679 -3.848,2.253" fill="#ffffff"/>
   <path id="svg_11" d="m212.51,28.466l-17.639,0l0,-0.825l0.586,0c0.47,0 0.9,-0.21 1.291,-0.629s0.678,-0.878 0.859,-1.376c0.053,-0.156 0.1,-0.32 0.139,-0.492c0.039,-0.17 0.059,-0.334 0.059,-0.491l0,-20.604c0,-0.629 -0.215,-1.16 -0.646,-1.593c-0.431,-0.432 -0.958,-0.648 -1.585,-0.648l-0.586,0l0,-0.865l17.209,0l0,4.442l-0.859,0c0,-0.759 -0.263,-1.401 -0.783,-1.926c-0.521,-0.523 -1.16,-0.785 -1.916,-0.785l-7.627,0l0,11.034l6.727,0c0.756,0 1.395,-0.268 1.916,-0.806c0.521,-0.536 0.783,-1.172 0.783,-1.907l0.82,0l0,7.156l-0.82,0c0,-0.761 -0.262,-1.409 -0.783,-1.946c-0.521,-0.537 -1.16,-0.806 -1.916,-0.806l-6.727,0l0,8.428c0,0.105 0.006,0.204 0.02,0.295c0.012,0.092 0.033,0.191 0.059,0.295c0.131,0.603 0.442,1.146 0.938,1.631c0.496,0.485 1.136,0.729 1.918,0.729l4.653,0c1.017,0 1.956,-0.394 2.815,-1.18c0.861,-0.787 1.408,-1.651 1.645,-2.594l0.781,0.196l-1.331,5.267z" fill="#ffffff"/>
   <path id="svg_12" d="m91.32,36.87l0.37,0c0.156,0 0.292,0.066 0.415,0.203c0.13,0.145 0.227,0.305 0.293,0.484c0.023,0.049 0.041,0.1 0.049,0.15c0.008,0.053 0.013,0.105 0.013,0.158l0,3.955c0,0.932 -0.239,1.739 -0.711,2.403c-0.465,0.657 -1.199,0.989 -2.183,0.989c-0.982,0 -1.717,-0.332 -2.183,-0.989c-0.472,-0.664 -0.709,-1.473 -0.709,-2.403l0,-3.955c0,-0.053 0.004,-0.105 0.013,-0.159c0.008,-0.049 0.025,-0.099 0.052,-0.157c0.063,-0.172 0.161,-0.332 0.29,-0.477c0.122,-0.137 0.259,-0.203 0.415,-0.203l0.356,0l0,-0.488l-3.518,0l0,0.488l0.284,0c0.156,0 0.295,0.066 0.422,0.203c0.134,0.145 0.234,0.305 0.3,0.484c0.024,0.051 0.041,0.101 0.048,0.15c0.01,0.053 0.013,0.105 0.013,0.158l0,4.604c0,1.053 0.4,1.896 1.187,2.507c0.779,0.604 1.646,0.955 2.589,1.043c0.074,0 0.145,0.002 0.216,0.008c0.072,0.004 0.147,0.006 0.225,0.006c0.079,0 0.154,-0.002 0.228,-0.006c0.069,-0.006 0.14,-0.008 0.222,-0.008c0.934,-0.088 1.802,-0.439 2.58,-1.043c0.788,-0.611 1.187,-1.454 1.187,-2.507l0,-4.604c0,-0.053 0.004,-0.105 0.013,-0.159c0.008,-0.048 0.025,-0.099 0.053,-0.157c0.062,-0.172 0.161,-0.331 0.295,-0.477c0.127,-0.137 0.266,-0.203 0.423,-0.203l0.298,0l0,-0.488l-3.545,0l0,0.49z" fill="#ffffff"/>
   <path id="svg_13" d="m108.315,37.284l1.056,0c0.566,0 1.035,0.199 1.393,0.59c0.359,0.395 0.541,0.838 0.541,1.324c0,0.232 -0.045,0.465 -0.134,0.689c-0.088,0.223 -0.23,0.43 -0.426,0.616c-0.298,0.288 -0.628,0.457 -0.981,0.499c-0.371,0.043 -0.749,0.061 -1.154,0.05l-0.294,0l0,-3.768l-0.001,0zm5.351,7.684c-0.365,-0.395 -0.727,-0.854 -1.075,-1.358c-0.02,-0.028 -0.035,-0.055 -0.05,-0.079c-0.019,-0.032 -0.041,-0.06 -0.072,-0.096l-0.063,-0.086c-0.021,-0.031 -0.041,-0.063 -0.065,-0.109c-0.068,-0.098 -0.134,-0.195 -0.196,-0.291c-0.063,-0.098 -0.123,-0.195 -0.182,-0.292c-0.136,-0.226 -0.277,-0.44 -0.422,-0.641c-0.117,-0.163 -0.258,-0.31 -0.416,-0.44c0.459,-0.203 0.848,-0.51 1.161,-0.91c0.348,-0.445 0.524,-0.964 0.524,-1.541c0,-0.808 -0.313,-1.475 -0.932,-1.982c-0.615,-0.499 -1.306,-0.754 -2.055,-0.754l-4.04,0l0,0.498l0.219,0c0.052,0 0.102,-0.003 0.182,-0.01c0.021,0 0.042,0.004 0.078,0.01c0.191,0.009 0.352,0.086 0.489,0.237c0.137,0.151 0.204,0.319 0.204,0.515l0,6.874c0,0.051 -0.006,0.106 -0.02,0.163c-0.014,0.061 -0.03,0.12 -0.047,0.174c-0.064,0.176 -0.167,0.339 -0.304,0.485c-0.13,0.14 -0.271,0.208 -0.435,0.208l-0.291,0l0,0.483l3.556,0l0,-0.483l-0.307,0c-0.153,0 -0.291,-0.068 -0.42,-0.209c-0.138,-0.146 -0.24,-0.31 -0.304,-0.482c-0.019,-0.057 -0.035,-0.115 -0.048,-0.176c-0.014,-0.057 -0.021,-0.112 -0.021,-0.163l0,-2.653l0.233,-0.004c0.02,-0.007 0.037,-0.01 0.053,-0.01l0.301,0c0.073,0 0.143,0.004 0.214,0.014c0.458,0.027 0.853,0.26 1.173,0.688c0.334,0.445 0.648,0.942 0.936,1.471c0.011,0.021 0.025,0.047 0.04,0.073c0.015,0.022 0.026,0.044 0.04,0.068c0.018,0.028 0.037,0.06 0.055,0.093c0.018,0.031 0.038,0.066 0.059,0.107c0.17,0.314 0.347,0.615 0.522,0.895c0.183,0.295 0.376,0.545 0.575,0.745l0.025,0.025l2.436,0l0,-0.483l-0.086,0c-0.46,0 -0.873,-0.193 -1.224,-0.574" fill="#ffffff"/>
   <path id="svg_14" d="m131.895,41.643l-2.553,0l1.184,-3.548l1.369,3.548zm3.64,3.874c-0.065,-0.023 -0.131,-0.051 -0.189,-0.074c-0.127,-0.073 -0.252,-0.166 -0.37,-0.275c-0.117,-0.109 -0.226,-0.223 -0.321,-0.34c-0.055,-0.063 -0.1,-0.131 -0.135,-0.197c-0.039,-0.074 -0.072,-0.139 -0.098,-0.189l-3.084,-8.059l-1.057,0l-2.674,8.063c-0.02,0.055 -0.043,0.116 -0.076,0.18c-0.031,0.066 -0.07,0.131 -0.117,0.195c-0.092,0.133 -0.206,0.259 -0.338,0.376c-0.129,0.116 -0.261,0.21 -0.389,0.274c-0.051,0.027 -0.104,0.047 -0.156,0.061c-0.051,0.012 -0.098,0.019 -0.141,0.019l-0.305,0l0,0.484l3.236,0l0,-0.484l-0.087,0c-0.072,0 -0.142,-0.007 -0.208,-0.02c-0.074,-0.016 -0.141,-0.027 -0.186,-0.034c-0.165,-0.062 -0.29,-0.158 -0.372,-0.289c-0.085,-0.135 -0.125,-0.273 -0.125,-0.425l0,-0.08c0,-0.016 0.003,-0.034 0.015,-0.081c0,-0.023 0.002,-0.046 0.004,-0.064c0.006,-0.02 0.013,-0.045 0.021,-0.07l0.665,-1.99l3.176,0l0.94,2.445c0.008,0.025 0.014,0.053 0.019,0.076c0.004,0.024 0.006,0.05 0.006,0.074l-0.015,0.104c0,0.027 -0.005,0.052 -0.016,0.076c-0.009,0.023 -0.024,0.047 -0.056,0.079c-0.04,0.058 -0.097,0.104 -0.174,0.142c-0.074,0.039 -0.152,0.058 -0.237,0.058l-0.306,0l0,0.484l3.631,0l0,-0.484l-0.306,0c-0.058,-0.003 -0.116,-0.014 -0.175,-0.035" fill="#ffffff"/>
   <path id="svg_15" d="m154.753,36.887l0.61,0c0.161,0 0.303,0.067 0.434,0.208c0.137,0.147 0.238,0.311 0.306,0.494c0.025,0.052 0.042,0.103 0.051,0.152c0.008,0.055 0.014,0.109 0.014,0.163l0,5.625l-6.47,-7.113l-0.025,-0.028l-2.82,0l0,0.499l0.086,0c0.354,0 0.688,0.071 0.99,0.213c0.297,0.137 0.57,0.327 0.818,0.562l0,6.858c0,0.051 -0.006,0.106 -0.02,0.165c-0.014,0.061 -0.031,0.119 -0.048,0.173c-0.064,0.175 -0.165,0.339 -0.303,0.485c-0.13,0.141 -0.267,0.209 -0.419,0.209l-0.436,0l0,0.484l3.424,0l0,-0.484l-0.626,0c-0.151,0 -0.289,-0.068 -0.418,-0.209c-0.138,-0.147 -0.239,-0.311 -0.302,-0.484c-0.02,-0.056 -0.035,-0.114 -0.049,-0.174c-0.014,-0.059 -0.02,-0.113 -0.02,-0.165l0,-6.021l6.775,7.509l0.025,0.029l0.59,0l0,-8.132c0,-0.051 0.008,-0.104 0.02,-0.155c0.014,-0.058 0.031,-0.113 0.049,-0.168c0.064,-0.175 0.167,-0.338 0.309,-0.484c0.135,-0.143 0.279,-0.21 0.441,-0.21l0.537,0l0,-0.499l-3.524,0l0,0.498l0.001,0z" fill="#ffffff"/>
   <path id="svg_16" d="m177.152,43.577c-0.281,0.513 -0.66,0.907 -1.127,1.173c-0.469,0.267 -1.006,0.4 -1.598,0.4c-1.02,0 -1.857,-0.407 -2.488,-1.209c-0.637,-0.807 -0.965,-1.708 -0.974,-2.677l-0.083,0l0.083,-0.043c0,-0.986 0.323,-1.9 0.96,-2.719c0.633,-0.812 1.474,-1.223 2.502,-1.223c0.063,0 0.125,0.003 0.19,0.008c0.063,0.004 0.128,0.011 0.192,0.021c0.218,0.026 0.438,0.076 0.651,0.151c0.213,0.072 0.417,0.169 0.605,0.286c0.198,0.138 0.384,0.303 0.548,0.49c0.16,0.184 0.287,0.412 0.378,0.674l0.019,0.057l0.467,0l0,-2.455l-0.441,-0.063l-0.019,0.074c-0.007,0.027 -0.022,0.061 -0.046,0.094c-0.021,0.034 -0.048,0.063 -0.078,0.087c-0.027,0.021 -0.064,0.036 -0.111,0.048c-0.072,0.02 -0.148,0.024 -0.219,0.014c-0.023,-0.004 -0.049,-0.01 -0.066,-0.016c-0.323,-0.135 -0.656,-0.234 -0.986,-0.296c-0.332,-0.063 -0.669,-0.095 -1,-0.095c-1.328,0 -2.522,0.463 -3.551,1.376c-1.031,0.914 -1.554,2.087 -1.554,3.485c0,1.391 0.519,2.553 1.54,3.459c1.018,0.902 2.18,1.365 3.451,1.375l0.148,0c0.056,0 0.114,-0.006 0.166,-0.015c0.522,-0.028 1.04,-0.146 1.539,-0.347c0.497,-0.199 0.951,-0.466 1.35,-0.793l0.031,-0.023l0,-1.344l-0.457,0l-0.022,0.046z" fill="#ffffff"/>
   <path id="svg_17" d="m195.969,43.871c-0.083,0.334 -0.281,0.646 -0.589,0.928c-0.305,0.278 -0.641,0.419 -0.997,0.419l-1.745,0c-0.272,0 -0.487,-0.08 -0.658,-0.248c-0.173,-0.168 -0.282,-0.359 -0.327,-0.57c-0.01,-0.034 -0.016,-0.068 -0.021,-0.1s-0.007,-0.063 -0.007,-0.1l0,-2.695l2.435,0c0.262,0 0.476,0.09 0.656,0.275s0.269,0.404 0.269,0.668l0,0.088l0.481,0l0,-2.855l-0.481,0l0,0.087c0,0.253 -0.088,0.468 -0.269,0.653c-0.179,0.186 -0.394,0.275 -0.656,0.275l-2.435,0l0,-3.492l2.772,0c0.262,0 0.476,0.087 0.656,0.268c0.181,0.182 0.268,0.398 0.268,0.66l0,0.088l0.496,0l0,-1.84l-6.624,0l0,0.5l0.308,0c0.212,0 0.386,0.07 0.532,0.217c0.146,0.146 0.216,0.322 0.216,0.535l0,6.879c0,0.053 -0.007,0.107 -0.019,0.164c-0.015,0.061 -0.031,0.119 -0.049,0.174c-0.064,0.176 -0.168,0.34 -0.305,0.485c-0.13,0.14 -0.268,0.209 -0.42,0.209l-0.307,0l0,0.483l6.766,0l0.537,-2.125l-0.463,-0.115l-0.02,0.085z" fill="#ffffff"/>
   <path id="svg_18" d="m72.473,42.707c-0.066,-0.226 -0.169,-0.448 -0.302,-0.659c-0.192,-0.309 -0.427,-0.551 -0.698,-0.723c-0.266,-0.166 -0.551,-0.32 -0.846,-0.459c-0.038,-0.018 -0.079,-0.039 -0.122,-0.058c-0.041,-0.017 -0.079,-0.036 -0.115,-0.054c-0.131,-0.066 -0.275,-0.133 -0.43,-0.199c-0.153,-0.065 -0.302,-0.133 -0.452,-0.209c-0.386,-0.184 -0.74,-0.406 -1.053,-0.656c-0.207,-0.166 -0.336,-0.365 -0.401,-0.599c-0.084,-0.326 -0.019,-0.661 0.033,-0.845c0.114,-0.348 0.3,-0.617 0.564,-0.787c0.302,-0.196 0.631,-0.3 0.975,-0.309l0.133,0c0.381,0.025 0.745,0.17 1.081,0.431c0.332,0.257 0.54,0.613 0.618,1.058l0.013,0.068l0.432,0l0,-2.327l-0.458,0l0,0.205c-0.042,0.041 -0.097,0.068 -0.167,0.086c-0.147,0.035 -0.334,0.043 -0.53,0.02l-0.395,-0.057c-0.043,-0.006 -0.084,-0.014 -0.121,-0.021l-0.034,-0.006c-0.13,-0.019 -0.248,-0.037 -0.354,-0.056c-0.11,-0.021 -0.207,-0.029 -0.286,-0.029c-0.795,0 -1.448,0.271 -1.941,0.805c-0.492,0.532 -0.751,1.129 -0.77,1.772l0,0.046c0,0.396 0.105,0.783 0.311,1.149c0.207,0.367 0.544,0.682 1.006,0.932c0.233,0.121 0.469,0.244 0.707,0.365c0.238,0.123 0.479,0.24 0.711,0.347c0.031,0.021 0.062,0.038 0.092,0.054c0.035,0.017 0.073,0.031 0.095,0.033c0.085,0.049 0.173,0.094 0.263,0.136c0.088,0.042 0.178,0.087 0.272,0.132c0.332,0.164 0.621,0.395 0.86,0.688c0.233,0.289 0.351,0.594 0.351,0.908c0,0.166 -0.04,0.336 -0.118,0.507c-0.078,0.169 -0.207,0.333 -0.385,0.485c-0.178,0.159 -0.386,0.279 -0.621,0.354c-0.236,0.078 -0.484,0.115 -0.736,0.115l-0.042,0c-0.501,-0.008 -0.967,-0.158 -1.386,-0.448c-0.415,-0.286 -0.634,-0.679 -0.67,-1.2l-0.006,-0.077l-0.454,0l0,2.319l0.436,-0.023l0.019,-0.052c0.031,-0.087 0.081,-0.156 0.147,-0.206c0.106,-0.082 0.233,-0.088 0.347,-0.057c0.044,0.012 0.087,0.03 0.127,0.053c0.182,0.107 0.377,0.19 0.585,0.25c0.203,0.055 0.413,0.094 0.63,0.113c0.042,0 0.083,0.002 0.124,0.008c0.046,0.004 0.088,0.008 0.128,0.008c0.381,0 0.757,-0.066 1.118,-0.195c0.363,-0.13 0.688,-0.322 0.964,-0.57c0.278,-0.252 0.492,-0.541 0.635,-0.863c0.145,-0.323 0.217,-0.662 0.217,-1.01c0,-0.235 -0.034,-0.467 -0.101,-0.693" fill="#ffffff"/>
   <path id="svg_19" d="m213.738,42.681c-0.066,-0.226 -0.168,-0.447 -0.303,-0.656c-0.191,-0.309 -0.427,-0.549 -0.696,-0.719c-0.267,-0.166 -0.552,-0.32 -0.847,-0.458c-0.038,-0.019 -0.078,-0.038 -0.121,-0.059c-0.042,-0.017 -0.079,-0.036 -0.115,-0.055c-0.133,-0.064 -0.275,-0.13 -0.431,-0.196c-0.153,-0.064 -0.302,-0.134 -0.451,-0.208c-0.386,-0.185 -0.74,-0.404 -1.053,-0.653c-0.208,-0.166 -0.337,-0.362 -0.401,-0.597c-0.082,-0.324 -0.02,-0.659 0.033,-0.842c0.115,-0.346 0.3,-0.612 0.563,-0.783c0.302,-0.194 0.631,-0.299 0.976,-0.308l0.134,0c0.382,0.025 0.745,0.171 1.08,0.43c0.331,0.256 0.539,0.61 0.618,1.053l0.012,0.068l0.434,0l0,-2.316l-0.459,0l0,0.202c-0.043,0.042 -0.098,0.069 -0.168,0.085c-0.147,0.036 -0.334,0.043 -0.531,0.021l-0.395,-0.056c-0.042,-0.007 -0.082,-0.015 -0.12,-0.022l-0.034,-0.006c-0.129,-0.019 -0.248,-0.036 -0.354,-0.056c-0.109,-0.02 -0.207,-0.029 -0.287,-0.029c-0.794,0 -1.447,0.27 -1.94,0.802c-0.491,0.53 -0.751,1.124 -0.77,1.766l0,0.046c0,0.395 0.104,0.779 0.312,1.144c0.206,0.366 0.544,0.677 1.005,0.928c0.233,0.12 0.469,0.242 0.707,0.364c0.237,0.121 0.478,0.238 0.711,0.344c0.03,0.021 0.062,0.039 0.093,0.054c0.033,0.019 0.072,0.031 0.094,0.033c0.086,0.048 0.174,0.093 0.264,0.136c0.089,0.042 0.179,0.086 0.272,0.132c0.331,0.161 0.62,0.392 0.858,0.684c0.234,0.287 0.353,0.591 0.353,0.905c0,0.164 -0.04,0.334 -0.118,0.504s-0.207,0.33 -0.386,0.482c-0.178,0.159 -0.386,0.278 -0.62,0.354c-0.236,0.076 -0.484,0.115 -0.736,0.115l-0.041,0c-0.5,-0.01 -0.968,-0.16 -1.387,-0.446c-0.414,-0.287 -0.634,-0.679 -0.67,-1.196l-0.005,-0.076l-0.454,0l0,2.309l0.436,-0.022l0.02,-0.052c0.031,-0.086 0.08,-0.156 0.146,-0.207c0.105,-0.08 0.234,-0.086 0.347,-0.055c0.044,0.012 0.087,0.029 0.127,0.055c0.182,0.104 0.378,0.188 0.587,0.246c0.203,0.056 0.411,0.094 0.63,0.113c0.042,0 0.083,0.002 0.124,0.007c0.045,0.006 0.088,0.007 0.127,0.007c0.381,0 0.758,-0.064 1.118,-0.192c0.363,-0.13 0.688,-0.321 0.964,-0.567c0.278,-0.25 0.492,-0.54 0.635,-0.861c0.145,-0.32 0.217,-0.658 0.217,-1.004c-0.002,-0.235 -0.035,-0.468 -0.104,-0.692" fill="#ffffff"/>
   <path id="svg_20" d="m55.051,42.707c-0.067,-0.226 -0.169,-0.448 -0.302,-0.659c-0.193,-0.309 -0.427,-0.551 -0.698,-0.723c-0.266,-0.166 -0.552,-0.32 -0.846,-0.459c-0.038,-0.018 -0.079,-0.039 -0.122,-0.058c-0.041,-0.017 -0.079,-0.036 -0.115,-0.054c-0.132,-0.066 -0.275,-0.133 -0.43,-0.199c-0.153,-0.065 -0.303,-0.133 -0.452,-0.209c-0.386,-0.184 -0.74,-0.406 -1.053,-0.656c-0.207,-0.166 -0.336,-0.365 -0.401,-0.599c-0.084,-0.325 -0.019,-0.661 0.033,-0.845c0.114,-0.348 0.3,-0.617 0.563,-0.787c0.302,-0.196 0.631,-0.3 0.976,-0.309l0.133,0c0.381,0.025 0.745,0.17 1.081,0.431c0.332,0.257 0.54,0.613 0.618,1.058l0.013,0.068l0.432,0l0,-2.327l-0.458,0l0,0.205c-0.043,0.041 -0.098,0.068 -0.167,0.086c-0.148,0.035 -0.334,0.043 -0.53,0.02l-0.395,-0.057c-0.043,-0.006 -0.084,-0.014 -0.121,-0.021l-0.035,-0.006c-0.129,-0.019 -0.248,-0.037 -0.354,-0.056c-0.11,-0.021 -0.207,-0.029 -0.287,-0.029c-0.794,0 -1.447,0.271 -1.941,0.806c-0.491,0.531 -0.751,1.128 -0.769,1.771l0,0.046c0,0.396 0.104,0.783 0.311,1.149c0.207,0.367 0.544,0.682 1.005,0.932c0.233,0.121 0.469,0.244 0.707,0.365c0.238,0.123 0.479,0.24 0.711,0.347c0.031,0.021 0.062,0.038 0.092,0.054c0.034,0.017 0.073,0.031 0.095,0.033c0.086,0.049 0.173,0.094 0.264,0.136c0.088,0.042 0.178,0.087 0.272,0.132c0.332,0.164 0.621,0.395 0.859,0.688c0.234,0.289 0.352,0.594 0.352,0.908c0,0.166 -0.04,0.336 -0.118,0.507c-0.078,0.169 -0.208,0.333 -0.386,0.485c-0.177,0.159 -0.385,0.279 -0.62,0.354c-0.236,0.078 -0.484,0.115 -0.736,0.115l-0.042,0c-0.501,-0.008 -0.968,-0.158 -1.387,-0.448c-0.415,-0.286 -0.635,-0.679 -0.67,-1.2l-0.005,-0.077l-0.454,0l0,2.319l0.436,-0.023l0.019,-0.052c0.031,-0.087 0.081,-0.156 0.146,-0.206c0.106,-0.082 0.234,-0.088 0.347,-0.057c0.045,0.012 0.087,0.03 0.128,0.053c0.182,0.107 0.377,0.19 0.585,0.25c0.203,0.055 0.413,0.094 0.63,0.113c0.042,0 0.083,0.002 0.124,0.008c0.044,0.004 0.088,0.008 0.127,0.008c0.381,0 0.758,-0.066 1.118,-0.195c0.363,-0.13 0.688,-0.322 0.964,-0.57c0.278,-0.252 0.492,-0.541 0.635,-0.863c0.144,-0.323 0.217,-0.662 0.217,-1.01c0.002,-0.235 -0.032,-0.467 -0.099,-0.693" fill="#ffffff"/>
  </g>
 </g>
</svg>