<svg id="Layer_1" height="512" viewBox="0 0 512 512" width="512" xmlns="http://www.w3.org/2000/svg" data-name="Layer 1"><path d="m421.41 385.98v73.64h-33.09v-74.07h-10.02v-45.07l17.31 7.39a46.96 46.96 0 0 1 25.8 38.11z" fill="#f8ec7d"/><path d="m368.9 155.02h-139.47-20.86-17.76v-25.49h13.28 194.01 13.28v25.49h-18.2z" fill="#e48e66"/><path d="m340.73 295.01a88.071 88.071 0 0 1 -127.92-78.54v-.14a22.453 22.453 0 0 1 -17.89-27.43 16.888 16.888 0 0 1 15.1-12.85l.1-.02a7.243 7.243 0 0 0 3.75 4.79l10.55 5.41a1.809 1.809 0 0 0 2.63-1.46l2.38-29.75h139.47a131.665 131.665 0 0 0 4.35 16.58l5.31 15.94a1.809 1.809 0 0 0 2.95.75l7.41-6.92a8.911 8.911 0 0 0 2.77-5.32h.04a16.889 16.889 0 0 1 15.04 12.85 22.423 22.423 0 0 1 -17.84 27.42v.15a88.127 88.127 0 0 1 -48.2 78.54z" fill="#f7caa5"/><path d="m398.1 128.49v1.04h-194.01v-.87c0-40.95 22.66-76.84 55.43-93.46v12.39a59.9 59.9 0 0 0 41.37 56.96l1.36.45a59.9 59.9 0 0 0 40.41-56.64v-13.18c32.77 16.58 55.44 52.34 55.44 93.31z" fill="#f8ec7d"/><path d="m393.18 155.02-1.41 20.37c-.02.22-.04.44-.08.66a8.911 8.911 0 0 1 -2.77 5.32l-7.41 6.92a1.809 1.809 0 0 1 -2.95-.75l-5.31-15.94a131.665 131.665 0 0 1 -4.35-16.58z" fill="#4b5d63"/><path d="m388.32 385.55v74.07h-153.39c14.38-14.88 25.61-34.98 25.61-61.43v-12.64z" fill="#e48e66"/><path d="m378.3 340.48v45.07h-20.06v-53.63z" fill="#cc7350"/><path d="m358.24 331.92v53.63h-97.7v-48.92l-.56-.24q-6.5-2.79-12.89-5.81l14.19-6.05a89.683 89.683 0 0 0 79.63 0z" fill="#f8ec7d"/><path d="m342.66 35.18v13.18a59.9 59.9 0 0 1 -40.41 56.64l-1.36-.45a59.9 59.9 0 0 1 -41.37-56.96v-12.39a90.666 90.666 0 0 1 17.84-6.83l-1.29-12.37h50.04l-1.28 12.37a91.386 91.386 0 0 1 17.83 6.81z" fill="#cc7350"/><path d="m340.73 324.45.18.08a89.683 89.683 0 0 1 -79.63 0l.18-.08v-29.21a88.222 88.222 0 0 0 79.27-.23z" fill="#edb288"/><path d="m234.93 459.62c-25.49 26.39-60.84 36.38-60.84 36.38s-83.5-24.42-83.5-97.81v-61.56l.56-.24a413.17 413.17 0 0 0 43.66-21.93 411.906 411.906 0 0 0 40.75-26.95 412.052 412.052 0 0 0 71.53 43.07q6.39 3.015 12.89 5.81l.56.24v61.56c0 26.45-11.23 46.55-25.61 61.43z" fill="#6fe3ff"/><path d="m229.43 155.02-2.38 29.75a1.809 1.809 0 0 1 -2.63 1.46l-10.55-5.41a7.243 7.243 0 0 1 -3.75-4.79 7.577 7.577 0 0 1 -.18-1.19l-1.37-19.82z" fill="#4b5d63"/><g fill="#63316d"><path d="m368.27 413.61a6 6 0 0 0 6-6v-6.02a6 6 0 1 0 -12 0v6.02a6 6 0 0 0 6 6z"/><path d="m198.219 123.53h-7.409a6 6 0 0 0 -6 6v25.49a6 6 0 0 0 6 6h12.16l.714 10.323a22.652 22.652 0 0 0 -14.593 16.135 28.47 28.47 0 0 0 17.823 33.464 94.147 94.147 0 0 0 48.546 77.919v21.628l-8.226 3.511a406.936 406.936 0 0 1 -68.075-41.287 6 6 0 0 0 -7.2 0 407.445 407.445 0 0 1 -40.154 26.557 408.749 408.749 0 0 1 -43.02 21.609l-.56.24a6 6 0 0 0 -3.635 5.514v61.56c0 32 15.286 60.1 44.206 81.268a155.753 155.753 0 0 0 43.61 22.3 5.992 5.992 0 0 0 3.316.014c1.472-.416 35.593-10.286 61.7-36.153h183.988a6 6 0 0 0 6-6v-73.642c0-.166-.007-.332-.02-.5a53.279 53.279 0 0 0 -29.1-42.978c-.107-.054-.217-.105-.327-.152l-51.233-21.86v-21.882a94.442 94.442 0 0 0 20.653-15.626 93.382 93.382 0 0 0 27.445-62.07 28.458 28.458 0 0 0 17.772-33.443 22.682 22.682 0 0 0 -14.534-16.109l.716-10.34h12.6a6 6 0 0 0 6-6v-25.49a6 6 0 0 0 -6-6h-7.4c-1.738-39.959-24.345-76.368-58.6-93.7a97.836 97.836 0 0 0 -14.062-5.8l.766-7.41a6 6 0 0 0 -5.976-6.62h-50.04a6 6 0 0 0 -5.968 6.622l.773 7.407a97.215 97.215 0 0 0 -14.069 5.82c-34.206 17.351-56.794 53.738-58.587 93.681zm18.391 51.952a1.249 1.249 0 0 1 -.652-.839 1.485 1.485 0 0 1 -.032-.217l-.926-13.406h7.932l-1.361 17.006zm118.12 145.3a84.261 84.261 0 0 1 -67.27 0v-16.365a94.361 94.361 0 0 0 67.27-.171zm29.51 58.765v-38.541l8.06 3.44v35.1zm18.08 12v62.07h-134.388a90.16 90.16 0 0 0 18.608-55.43v-6.64zm-208.2 98.157a148.742 148.742 0 0 1 -38.519-20.14c-25.886-19.05-39.011-43.064-39.011-71.374v-57.624a420.684 420.684 0 0 0 41.227-20.914 419.869 419.869 0 0 0 37.744-24.673 418.939 418.939 0 0 0 68.971 41.029c3.332 1.571 6.686 3.1 10.008 4.559v57.623c0 21.569-8.049 40.833-23.925 57.262-20.951 21.69-49.382 31.937-56.494 34.255zm241.29-103.466v67.382h-21.09v-68.07a6 6 0 0 0 -6-6h-4.02v-29.983l8.783 3.748a41.213 41.213 0 0 1 22.327 32.923zm-63.17-50.353v43.665h-85.7v-42.92a5.987 5.987 0 0 0 -1.366-3.792 96.293 96.293 0 0 0 75.875-1.729zm48.7-145.562a16.421 16.421 0 0 1 -13.058 20.089 6 6 0 0 0 -4.953 5.908v.15a81.523 81.523 0 0 1 -24.029 58.024 82.366 82.366 0 0 1 -20.892 15.168 82.221 82.221 0 0 1 -73.861.214 82.141 82.141 0 0 1 -45.337-73.406v-.14a6 6 0 0 0 -4.967-5.91 16.374 16.374 0 0 1 -13.563-16.17 16.551 16.551 0 0 1 .468-3.921 10.625 10.625 0 0 1 6.329-7.409 13.244 13.244 0 0 0 4.055 3.239l10.55 5.41a7.808 7.808 0 0 0 11.349-6.321l1.938-24.228h129.082c.977 4.216 2.147 8.4 3.507 12.476l5.315 15.955a7.781 7.781 0 0 0 5.5 5.09 7.882 7.882 0 0 0 1.92.239 7.75 7.75 0 0 0 5.313-2.1l7.394-6.911a14.858 14.858 0 0 0 2.212-2.6 10.5 10.5 0 0 1 5.729 7.154zm-15.154-15.347c-.016.085-.029.17-.041.254a2.939 2.939 0 0 1 -.921 1.755l-2.637 2.462-3.246-9.745c-.95-2.848-1.79-5.753-2.538-8.682h10.347l-.966 13.956zm19.594-25.956h-33.85a5.977 5.977 0 0 0 -5.533 0h-169.187v-13.49h208.57zm-13.414-25.49h-181.733c1.595-31.926 17.971-61.2 43.287-77.91v1.97a65.717 65.717 0 0 0 45.48 62.656l1.36.45a6 6 0 0 0 3.838-.022 65.9 65.9 0 0 0 44.462-62.314v-2.774c25.363 16.696 41.757 45.998 43.306 77.944zm-113.066-89.361a6 6 0 0 0 4.428-6.421l-.6-5.748h36.729l-.595 5.753a6 6 0 0 0 4.426 6.415 85.553 85.553 0 0 1 13.372 4.791v9.4a53.9 53.9 0 0 1 -34.5 50.289 53.758 53.758 0 0 1 -36.64-51.058v-8.616a84.639 84.639 0 0 1 13.38-4.805z"/><path d="m290.44 74.64h23.63a6 6 0 0 0 0-12h-23.63a6 6 0 0 0 0 12z"/><path d="m290.44 52.85h23.63a6 6 0 0 0 0-12h-23.63a6 6 0 0 0 0 12z"/><path d="m208.307 365.275-43.749 40.071-21.377-23.183a6 6 0 1 0 -8.822 8.135l25.43 27.579a6 6 0 0 0 8.464.357l48.16-44.109a6 6 0 0 0 -8.106-8.85z"/></g></svg>